<?xml version="1.0" standalone="no"?>
<!DOCTYPE svg PUBLIC "-//W3C//DTD SVG 20010904//EN"
 "http://www.w3.org/TR/2001/REC-SVG-20010904/DTD/svg10.dtd">
<svg version="1.0" xmlns="http://www.w3.org/2000/svg"
 width="300.000000pt" height="300.000000pt" viewBox="0 0 300.000000 300.000000"
 preserveAspectRatio="xMidYMid meet">
<metadata>
Created by potrace 1.14, written by Peter Selinger 2001-2017
</metadata>
<g transform="translate(0.000000,300.000000) scale(0.100000,-0.100000)"
fill="#000000" stroke="none">
<path d="M1369 2816 c-2 -2 -24 -6 -49 -9 -48 -7 -81 -13 -108 -21 -9 -3 -33
-8 -52 -11 -19 -3 -40 -11 -47 -17 -7 -6 -13 -8 -13 -5 0 7 -136 -45 -192 -74
-51 -25 -194 -118 -224 -145 -12 -10 -45 -38 -72 -62 -51 -43 -181 -198 -220
-262 -45 -74 -101 -188 -126 -260 -26 -72 -63 -219 -64 -250 0 -8 -3 -32 -7
-54 -20 -115 -1 -354 41 -496 21 -72 85 -229 96 -236 4 -3 8 -14 8 -24 0 -10
4 -20 8 -22 4 -2 20 -25 36 -51 80 -139 240 -304 390 -403 118 -79 311 -165
406 -180 14 -3 32 -7 40 -10 8 -3 31 -7 50 -10 19 -2 46 -7 60 -10 63 -15 394
-4 423 13 4 2 23 7 42 9 57 7 183 52 291 104 240 116 442 314 581 570 36 66
77 165 88 210 1 8 10 40 19 71 31 106 40 182 40 329 -1 167 -19 276 -71 430
-43 124 -132 287 -208 380 -71 86 -251 252 -307 284 -13 6 -41 23 -63 37 -22
13 -42 22 -44 21 -2 -2 -7 0 -10 5 -9 12 -71 43 -87 43 -8 0 -14 5 -14 10 0 6
-11 10 -24 10 -14 0 -27 4 -30 9 -3 5 -16 11 -28 14 -13 3 -51 12 -85 21 -135
34 -209 43 -348 44 -68 1 -124 -1 -126 -2z m251 -95 c3 -1 28 -4 55 -7 28 -3
61 -6 75 -8 36 -5 203 -58 218 -69 19 -15 14 -27 -10 -27 -48 0 -196 -57 -225
-86 -8 -8 -17 -14 -21 -14 -9 0 -89 -76 -117 -110 -31 -39 -58 -82 -77 -124
-15 -33 -21 -37 -41 -31 -82 25 -134 32 -223 29 -55 -1 -110 -5 -124 -8 -14
-3 -38 -8 -55 -12 -53 -11 -130 -37 -136 -47 -3 -5 -8 -8 -10 -6 -6 3 -53 -13
-59 -20 -3 -4 -27 -20 -55 -36 -48 -27 -185 -157 -185 -175 0 -5 -6 -15 -13
-22 -32 -35 -65 -118 -74 -184 -6 -49 15 -77 51 -68 27 6 36 -9 43 -75 5 -43
5 -44 -21 -39 -17 4 -25 1 -23 -6 2 -6 16 -12 31 -14 25 -3 27 -7 21 -30 -3
-15 -27 -53 -51 -84 l-45 -58 35 -35 c35 -35 38 -51 12 -83 -7 -10 -4 -18 14
-32 14 -10 21 -24 17 -33 -3 -8 1 -24 10 -36 8 -12 13 -28 10 -35 -8 -20 23
-75 47 -82 33 -11 99 -6 189 14 112 25 176 23 208 -9 21 -21 24 -32 24 -104
-1 -131 -29 -239 -90 -339 -19 -32 -35 -62 -35 -66 0 -4 -7 -10 -15 -14 -8 -3
-15 -10 -15 -15 0 -6 -14 -24 -30 -41 -32 -32 -53 -34 -89 -5 -9 8 -43 34 -76
58 -85 64 -148 128 -250 253 -14 18 -25 36 -25 42 0 5 -7 15 -16 23 -20 16
-105 195 -132 279 -60 182 -74 422 -38 615 10 50 20 97 23 105 3 8 7 20 8 27
13 60 143 312 180 349 8 9 15 19 15 23 0 11 167 180 208 211 19 14 39 30 45
35 20 18 159 100 210 123 48 22 184 69 222 77 11 2 20 4 20 5 0 1 16 3 35 6
19 2 47 7 62 11 23 7 272 10 288 4z m368 -482 c2 -5 8 -9 14 -9 12 0 28 -17
48 -50 16 -25 19 -103 7 -149 -9 -35 -50 -134 -59 -146 -4 -5 -8 -19 -8 -31 0
-13 -4 -25 -9 -28 -8 -5 -29 -73 -37 -121 -2 -11 -8 -38 -13 -60 -16 -67 -7
-235 16 -295 4 -8 7 -17 8 -20 7 -23 30 -60 37 -60 4 0 7 -4 5 -9 -3 -10 90
-111 103 -111 5 0 15 -6 22 -13 30 -28 118 -60 198 -72 47 -7 89 -10 94 -7 5
3 23 6 40 7 51 2 109 17 141 36 16 10 38 23 48 29 14 9 17 7 17 -13 0 -13 -3
-27 -7 -31 -5 -4 -8 -11 -9 -14 0 -4 -8 -25 -17 -47 -10 -22 -17 -44 -16 -49
0 -5 -3 -12 -8 -15 -4 -3 -30 -43 -58 -88 -27 -46 -53 -83 -57 -83 -4 0 -8 -5
-8 -10 0 -12 -32 -49 -115 -135 -65 -67 -180 -158 -242 -190 -21 -11 -40 -22
-43 -25 -13 -15 -158 -73 -234 -96 l-86 -25 -68 68 c-38 38 -95 93 -127 123
-171 162 -231 311 -188 463 15 52 99 197 114 197 5 0 9 6 9 14 0 8 3 16 8 18
10 4 81 93 123 153 18 28 38 53 42 56 5 3 8 9 8 13 -1 3 5 19 13 34 30 58 66
155 71 195 4 23 9 45 11 49 18 29 -3 265 -27 294 -5 6 -6 14 -2 17 3 4 1 7 -5
7 -7 0 -12 6 -12 13 0 8 -15 35 -34 62 -19 26 -32 53 -30 59 9 22 117 87 168
101 53 13 148 10 154 -6z m515 -30 c15 -22 27 -45 27 -49 0 -5 4 -10 8 -12 14
-5 113 -209 127 -263 32 -116 42 -165 33 -165 -2 0 -24 6 -49 14 -99 30 -196
3 -271 -75 -52 -54 -79 -123 -76 -196 2 -65 12 -72 50 -34 55 55 112 69 169
42 96 -45 56 -205 -61 -246 -48 -17 -146 -20 -155 -5 -3 6 -13 10 -22 10 -29
0 -89 59 -118 116 -40 80 -44 187 -10 274 22 55 60 128 75 140 3 3 37 52 75
110 71 107 134 244 138 300 1 16 5 30 8 30 3 0 4 11 1 25 -7 39 21 31 51 -16z"/>
</g>
</svg>
